<svg xmlns="http://www.w3.org/2000/svg" viewBox="0 0 512 512"><path d="M274.53,194.55l29.11-70.83.07-.22A49,49,0,0,0,257,61.21h-.44a49,49,0,0,0-47.37,61.48l28.39,72.63-44.32,33.52-50.78-81H58.35v4h81.89L190,231.26l-82.61,62.49,29.24,22.12L107.41,338l149.14,112.8L405.69,338l-29.25-22.12,29.25-22.12ZM221,82.59a45,45,0,0,1,78.87,39.72l-44.38,108L213,121.56A44.64,44.64,0,0,1,221,82.59ZM192.16,234.67l10.48,16.73a50.72,50.72,0,0,0-12.3,3.06l-.51.21-.68.28-1.58.66.41,1.65c.12.52.26,1,.4,1.55a50.34,50.34,0,0,0,65,34.27v29.5h4V293.09a50.45,50.45,0,0,0,65.37-35.83l.4-1.65-1.57-.66a50.43,50.43,0,0,0-66.2,27.37,50.35,50.35,0,0,0-48.19-31.26l-11.79-18.81,43.7-33.06L255.42,241,273,198.38l126.1,95.37L256.55,401.53,114,293.75ZM213.66,269l3.39-2.13L209.64,255a46.4,46.4,0,0,1,43.63,33.45l-.12.43A46.45,46.45,0,0,1,192.3,258,46.61,46.61,0,0,1,205,255.18Zm43.75,19.51a46.44,46.44,0,0,1,61-30.49,46.45,46.45,0,0,1-60.85,30.92ZM399.06,338,256.55,445.77,114,338,140,318.38l116.58,88.17,116.58-88.17Z"/><path d="M256.55,137a28.66,28.66,0,0,0,.24-57.32h-.25A28.66,28.66,0,0,0,256.3,137Zm-24.67-28.87A24.67,24.67,0,0,1,256.54,83.7h.22a24.66,24.66,0,1,1-24.88,24.45Z"/><rect width="83" height="4" x="370.68" y="189.99"/><rect width="83" height="4" x="370.68" y="204.99"/><rect width="22.17" height="4" x="431.51" y="219.99"/><path d="M420.42,224l-.06-4c-16.4.22-33.57.22-49.65,0l-.06,4c8.06.11,16.39.16,24.76.16S412.2,224.1,420.42,224Z"/><rect width="83" height="4" x="370.68" y="234.99"/><rect width="83" height="4" x="58.35" y="102.82"/><rect width="83" height="4" x="58.35" y="117.82"/><rect width="22.17" height="4" x="119.18" y="132.82"/><path d="M108.08,136.82l0-4c-16.4.22-33.58.22-49.66,0l0,4c8.06.11,16.39.17,24.76.17S99.86,136.93,108.08,136.82Z"/></svg>