<svg height="511.999pt" viewBox="1 1 511.999 511.999" width="511.999pt" xmlns="http://www.w3.org/2000/svg"><path d="m502.992188 206.050781-44.109376-4.398437c-4.738281-17.746094-11.78125-34.734375-21.003906-50.667969l28.089844-34.3125c3.253906-3.976563 2.96875-9.773437-.667969-13.40625l-56.566406-56.566406c-3.632813-3.632813-9.429687-3.921875-13.40625-.667969l-34.304687 28.085938c-15.9375-9.226563-32.929688-16.273438-50.675782-21.011719l-4.398437-44.097657c-.507813-5.113281-4.8125-9.007812-9.949219-9.007812h-80c-5.140625 0-9.441406 3.894531-9.949219 9.007812l-4.398437 44.097657c-17.742188 4.738281-34.730469 11.785156-50.671875 21.011719l-34.3125-28.085938c-4.273438-3.5-10.574219-2.871094-14.070313 1.402344-3.5 4.273437-2.871094 10.574218 1.402344 14.070312l39.761719 32.550782c3.320312 2.71875 8 3.015624 11.636719.742187 17.871093-11.175781 37.300781-19.234375 57.75-23.945313 4.179687-.964843 7.28125-4.484374 7.707031-8.753906l4.199219-42.097656h61.894531l4.195312 42.097656c.425781 4.269532 3.527344 7.789063 7.707031 8.753906 20.460938 4.714844 39.890626 12.769532 57.75 23.941407 3.636719 2.277343 8.320313 1.980469 11.636719-.738281l32.757813-26.816407 43.765625 43.765625-26.820313 32.761719c-2.71875 3.320313-3.015625 8-.742187 11.636719 11.171875 17.859375 19.226562 37.289062 23.9375 57.746094.964843 4.179687 4.488281 7.28125 8.753906 7.707031l42.109375 4.199219v61.894531l-42.101562 4.195312c-4.269532.425781-7.789063 3.527344-8.753907 7.707031-4.714843 20.464844-12.773437 39.894532-23.941406 57.75-2.273437 3.636719-1.976563 8.316407.742187 11.636719l26.8125 32.757813-43.765624 43.765625-32.757813-26.816407c-3.320313-2.71875-8-3.015624-11.636719-.742187-17.871094 11.179687-37.300781 19.234375-57.75 23.945313-4.179687.964843-7.277344 4.484374-7.703125 8.753906l-4.199219 42.097656h-61.894531l-4.199219-42.101562c-.425781-4.265626-3.523437-7.789063-7.703124-8.75-20.464844-4.71875-39.894532-12.773438-57.75-23.945313-3.636719-2.273437-8.320313-1.976563-11.636719.742187l-32.757813 26.816407-43.765625-43.765625 26.816407-32.757813c2.71875-3.320312 3.015624-8 .742187-11.640625-11.175781-17.867187-19.234375-37.296875-23.945313-57.746094-.964843-4.183593-4.484374-7.28125-8.753906-7.707031l-42.097656-4.199219v-61.894531l42.101562-4.195312c4.269532-.425781 7.789063-3.527344 8.753907-7.707031 4.714843-20.464844 12.773437-39.894532 23.941406-57.75 2.273437-3.636719 1.976563-8.316407-.742187-11.636719l-32.550782-39.761719c-3.496094-4.273438-9.796875-4.902344-14.070312-1.402344-4.273438 3.5-4.902344 9.800782-1.402344 14.070313l28.085938 34.308593c-9.222657 15.933594-16.265626 32.925782-21.007813 50.675782l-44.101563 4.398437c-5.113281.507813-9.007812 4.8125-9.007812 9.949219v80c0 5.136719 3.894531 9.441406 9.007812 9.949219l44.097657 4.398437c4.738281 17.738282 11.785156 34.730469 21.011719 50.671875l-28.085938 34.308594c-3.253906 3.976563-2.96875 9.773437.667969 13.40625l56.566406 56.566406c3.632813 3.636719 9.429687 3.921875 13.40625.667969l34.308594-28.085938c15.933593 9.222657 32.921875 16.265626 50.671875 21.007813l4.398437 44.101563c.511719 5.113281 4.8125 9.007812 9.953125 9.007812h79.996094c5.136719 0 9.441406-3.894531 9.949219-9.007812l4.398437-44.097657c17.738282-4.738281 34.730469-11.785156 50.671875-21.015625l34.308594 28.089844c3.976563 3.253906 9.773437 2.964844 13.40625-.667969l56.566406-56.566406c3.636719-3.632813 3.921875-9.429687.667969-13.40625l-28.085938-34.308594c9.222657-15.933593 16.265626-32.921875 21.007813-50.675781l44.101563-4.394531c5.113281-.511719 9.007812-4.8125 9.007812-9.953125v-79.996094c0-5.136719-3.894531-9.441406-9.007812-9.949219zm0 0"/><path d="m388.753906 345.875c4.753906 2.808594 10.886719 1.234375 13.695313-3.519531 15.40625-26.078125 23.550781-55.9375 23.550781-86.355469 0-93.738281-76.261719-170-170-170s-170 76.261719-170 170 76.261719 170 170 170c30.425781 0 60.289062-8.144531 86.359375-23.554688 4.753906-2.808593 6.332031-8.941406 3.523437-13.695312-2.8125-4.753906-8.941406-6.332031-13.699218-3.523438-22.992188 13.589844-49.335938 20.773438-76.183594 20.773438-82.710938 0-150-67.289062-150-150s67.289062-150 150-150c82.707031 0 150 67.289062 150 150 0 26.839844-7.183594 53.183594-20.769531 76.179688-2.808594 4.753906-1.230469 10.886718 3.523437 13.695312zm0 0"/><path d="m82.050781 92.054688c2.398438 0 4.808594-.855469 6.722657-2.597657l.003906-.007812c4.085937-3.714844 4.386718-10.035157.671875-14.121094-3.714844-4.085937-10.042969-4.386719-14.128907-.671875-4.085937 3.714844-4.386718 10.039062-.671874 14.125 1.972656 2.171875 4.683593 3.273438 7.402343 3.273438zm0 0"/><path d="m369.144531 379.132812c2.257813 0 4.53125-.761718 6.398438-2.320312 4.246093-3.535156 4.816406-9.839844 1.28125-14.082031-3.535157-4.242188-9.839844-4.816407-14.082031-1.28125l-.007813.003906c-4.242187 3.539063-4.8125 9.839844-1.277344 14.082031 1.976563 2.375 4.820313 3.597656 7.6875 3.597656zm0 0"/><path d="m156 209.734375c-5.523438 0-10 4.476563-10 10v100c0 5.519531 4.476562 10 10 10h200c5.523438 0 10-4.480469 10-10v-100c0-5.523437-4.476562-10-10-10h-45.785156v-5.171875c1.753906 1.242188 3.773437 1.847656 5.777344 1.847656 3.070312 0 6.101562-1.410156 8.0625-4.074218 3.273437-4.445313 2.320312-10.707032-2.128907-13.980469l-60-44.144531c-3.523437-2.59375-8.324219-2.59375-11.851562 0l-60 44.144531c-4.449219 3.273437-5.402344 9.535156-2.128907 13.980469 3.238282 4.402343 9.402344 5.375 13.839844 2.222656v5.175781zm45.785156 20v17.472656l-9.066406 6.671875h-26.71875v-24.144531zm54.214844 2.414063 34.214844 25.171874v52.414063h-24.214844v-35c0-5.523437-4.476562-10-10-10s-10 4.476563-10 10v35h-24.214844v-52.414063zm-90 41.730468h30c2.074219 0 4.09375-.652344 5.785156-1.851562v37.707031h-35.785156zm144.214844 35.855469v-37.707031c1.691406 1.199218 3.710937 1.851562 5.785156 1.851562h30v35.855469zm35.785156-80v24.144531h-26.71875l-9.066406-6.671875v-17.472656zm-90-65.054687 34.214844 25.175781v42.636719l-24.214844-17.816407v-14.316406c0-5.523437-4.476562-10-10-10s-10 4.476563-10 10v14.316406l-24.214844 17.816407v-42.636719zm0 0"/></svg>