<svg id="Capa_1" enable-background="new 0 0 512 512" height="512" viewBox="0 0 512 512" width="512" xmlns="http://www.w3.org/2000/svg"><g><path d="m75.082 140.5h13.944v117c0 7.72 6.28 14 14 14h16c7.72 0 14-6.28 14-14v-117h13.944c3.427 0 6.6-1.855 8.28-4.843s1.619-6.662-.162-9.591l-35.943-59.147c-1.737-2.86-4.772-4.568-8.119-4.568s-6.382 1.708-8.119 4.568l.001-.001-35.944 59.148c-1.78 2.929-1.842 6.604-.162 9.591s4.853 4.843 8.28 4.843zm40.645-65.793c-.001.003-.003.006-.005.01zm-4.701 7.735 26.166 43.058h-5.166c-7.72 0-14 6.28-14 14v117h-14v-117c0-7.72-6.28-14-14-14h-5.166z"/><path d="m44.026 271.5h16c7.72 0 14-6.28 14-14v-73c0-7.72-6.28-14-14-14h-16c-7.72 0-14 6.28-14 14v73c0 7.72 6.281 14 14 14zm1-86h14v71h-14z"/><path d="m499.552 88.945-76.497-76.498c-8.028-8.026-18.701-12.447-30.053-12.447h-199.502c-12.407 0-22.5 10.094-22.5 22.5v264.5h-123.5c-9.649 0-17.5 7.851-17.5 17.5v15c0 .851.082 1.681.2 2.5h-12.7c-9.649 0-17.5 7.851-17.5 17.5v15c0 9.649 7.851 17.5 17.5 17.5h12.7c-.118.819-.2 1.649-.2 2.5v15c0 .851.082 1.681.2 2.5h-12.7c-9.649 0-17.5 7.851-17.5 17.5v15c0 9.649 7.851 17.5 17.5 17.5h12.7c-.118.819-.2 1.649-.2 2.5v15c0 .851.082 1.681.2 2.5h-12.7c-9.649 0-17.5 7.851-17.5 17.5v15c0 9.649 7.851 17.5 17.5 17.5h472c12.407 0 22.5-10.094 22.5-22.5v-285c0-4.143-3.358-7.5-7.5-7.5s-7.5 3.357-7.5 7.5v285c0 4.136-3.364 7.5-7.5 7.5h-257.7c.118-.819.2-1.649.2-2.5v-15c0-.851-.082-1.681-.2-2.5h12.7c9.649 0 17.5-7.851 17.5-17.5v-15c0-9.649-7.851-17.5-17.5-17.5h-12.7c.118-.819.2-1.649.2-2.5v-15c0-.851-.082-1.681-.2-2.5h12.7c9.649 0 17.5-7.851 17.5-17.5v-15c0-9.649-7.851-17.5-17.5-17.5h-12.7c.118-.819.2-1.649.2-2.5v-15c0-.851-.082-1.681-.2-2.5h12.7c9.649 0 17.5-7.851 17.5-17.5v-15c0-9.649-7.851-17.5-17.5-17.5h-58.5v-264.5c0-4.136 3.364-7.5 7.5-7.5h199.007c4.131 0 7.493 3.361 7.493 7.493v22.507h-171.5c-6.893 0-12.5 5.607-12.5 12.5v127c0 6.893 5.607 12.5 12.5 12.5h226c6.893 0 12.5-5.607 12.5-12.5v-72.5h22.5c4.136 0 7.5 3.364 7.5 7.5v7.5 42.5c0 4.143 3.358 7.5 7.5 7.5s7.5-3.357 7.5-7.5v-50.503c0-11.352-4.421-22.024-12.448-30.052zm-252.552 355.555v15c0 1.379-1.122 2.5-2.5 2.5h-142c-4.142 0-7.5 3.357-7.5 7.5s3.358 7.5 7.5 7.5h112c1.378 0 2.5 1.121 2.5 2.5v15c0 1.379-1.122 2.5-2.5 2.5h-197c-1.378 0-2.5-1.121-2.5-2.5v-15c0-1.379 1.122-2.5 2.5-2.5h50c4.142 0 7.5-3.357 7.5-7.5s-3.358-7.5-7.5-7.5h-20c-1.378 0-2.5-1.121-2.5-2.5v-15c0-1.379 1.122-2.5 2.5-2.5h167 30c1.378 0 2.5 1.121 2.5 2.5zm-30-35v15c0 1.379-1.122 2.5-2.5 2.5h-197c-1.378 0-2.5-1.121-2.5-2.5v-15c0-1.379 1.122-2.5 2.5-2.5h30 167c1.378 0 2.5 1.121 2.5 2.5zm30-35v15c0 1.379-1.122 2.5-2.5 2.5h-197c-1.378 0-2.5-1.121-2.5-2.5v-15c0-1.379 1.122-2.5 2.5-2.5h197c1.378 0 2.5 1.121 2.5 2.5zm-30-35v15c0 1.379-1.122 2.5-2.5 2.5h-197c-1.378 0-2.5-1.121-2.5-2.5v-15c0-1.379 1.122-2.5 2.5-2.5h197c1.378 0 2.5 1.121 2.5 2.5zm30-35v15c0 1.379-1.122 2.5-2.5 2.5h-197c-1.378 0-2.5-1.121-2.5-2.5v-15c0-1.379 1.122-2.5 2.5-2.5h197c1.378 0 2.5 1.121 2.5 2.5zm239.393-207.5h-63.893c-4.136 0-7.5-3.364-7.5-7.5v-63.894zm-34.393 85h-221v-122h169v29.5c0 12.406 10.093 22.5 22.5 22.5h29.5z"/><path d="m347 467h112.5c4.142 0 7.5-3.357 7.5-7.5s-3.358-7.5-7.5-7.5h-112.5c-4.142 0-7.5 3.357-7.5 7.5s3.358 7.5 7.5 7.5z"/><path d="m343.289 435.15c3.522 2.177 8.145 1.088 10.324-2.435l13.408-21.681 10.042 18.825c2.099 3.935 6.172 6.467 10.629 6.609 4.448.146 8.684-2.125 11.031-5.919l12.069-19.516 10.153 19.034c2.102 3.939 6.019 6.408 10.479 6.604.191.008.38.013.569.013 4.24-.001 8.115-2.092 10.45-5.672l22.75-34.881c2.263-3.47 1.285-8.117-2.185-10.38-3.468-2.26-8.116-1.283-10.379 2.185l-20.44 31.34-10.209-19.139c-2.099-3.935-6.172-6.467-10.629-6.609-4.469-.188-8.685 2.124-11.031 5.919l-12.069 19.516-10.042-18.825c-2.1-3.935-6.173-6.468-10.63-6.609-4.464-.188-8.684 2.124-11.03 5.919l-15.694 25.378c-2.179 3.524-1.089 8.146 2.434 10.324z"/><path d="m459.5 317h-112c-4.142 0-7.5 3.357-7.5 7.5s3.358 7.5 7.5 7.5h112c4.142 0 7.5-3.357 7.5-7.5s-3.358-7.5-7.5-7.5z"/><path d="m459.5 287h-159c-4.142 0-7.5 3.357-7.5 7.5s3.358 7.5 7.5 7.5h159c4.142 0 7.5-3.357 7.5-7.5s-3.358-7.5-7.5-7.5z"/><path d="m459.5 257h-236c-4.142 0-7.5 3.357-7.5 7.5s3.358 7.5 7.5 7.5h236c4.142 0 7.5-3.357 7.5-7.5s-3.358-7.5-7.5-7.5z"/><path d="m459.5 227h-236c-4.142 0-7.5 3.357-7.5 7.5s3.358 7.5 7.5 7.5h236c4.142 0 7.5-3.357 7.5-7.5s-3.358-7.5-7.5-7.5z"/></g></svg>