<svg xmlns="http://www.w3.org/2000/svg" enable-background="new 0 0 66 66" viewBox="0 0 66 66"><path fill="#D5B79F" d="M40.4,25.4l-2-10.1c-0.1-0.5-0.4-1-0.7-1.4L26.4,2.7c-0.6-0.6-1.4-0.9-2.1-0.8L10.7,3L2.7,4v14.3l7.4,0.8
		L25,31c0.9,1,2.5,1.2,3.6,0.5c1.3-0.9,1.7-2.7,0.8-4l-10-12.9l5.3-1.3l8.3,4.5l2.4,8.9c0.4,1.6,2.2,2.4,3.7,1.6
		C40.1,27.6,40.6,26.5,40.4,25.4z"/><path fill="#6FAC43" d="M37,42.3l1.1,1.8l2.4-1.3L39.6,41c0.8-0.7,1.3-1.6,1.6-2.5l2.1,0.1l0.1-2.7l-2.1-0.2
					C41.2,35,41,34.5,40.7,34c-0.3-0.5-0.6-0.9-0.9-1.2l1.1-1.8l-2.3-1.4l-1.2,1.8c-1-0.3-2.1-0.4-3.2-0.1l-1.1-1.8l-2.4,1.3
					l0.9,1.9C31,33.2,30.4,34,30.1,35L28,34.9l-0.1,2.7l2.1,0.2c0.1,0.6,0.3,1.1,0.6,1.6c0.3,0.5,0.6,0.9,0.9,1.2l-1.1,1.8l2.3,1.5
					l1.2-1.8C34.9,42.5,36,42.6,37,42.3z M33.5,37.9c-0.6-1.2-0.2-2.7,1-3.3c1.2-0.6,2.7-0.2,3.3,1c0.6,1.2,0.2,2.7-1,3.3
					C35.6,39.5,34.1,39.1,33.5,37.9z"/><path fill="#639C42" d="M39.4,34.7c-1.1-2.1-3.7-2.9-5.8-1.7c-2.1,1.1-2.9,3.7-1.7,5.8c1.1,2.1,3.7,2.9,5.8,1.8
					C39.8,39.4,40.6,36.8,39.4,34.7z M33.5,37.9c-0.6-1.2-0.2-2.7,1-3.3c1.2-0.6,2.7-0.2,3.3,1c0.6,1.2,0.2,2.7-1,3.3
					C35.6,39.5,34.1,39.1,33.5,37.9z"/><path fill="#639C42" d="M41.2,38.4l2.1,0.1l0.1-2.7l-2.1-0.2C41.2,35,41,34.5,40.7,34c-0.3-0.5-0.6-0.9-0.9-1.2l1.1-1.8
					l-1.2-0.7l-1.8,2.9c0.6,0.4,1.1,0.9,1.5,1.6c1.1,2.1,0.3,4.7-1.7,5.8c-1.4,0.8-3,0.6-4.3-0.1l-1.8,2.9l1.1,0.7l1.2-1.8
					c1,0.3,2.1,0.4,3.2,0.1l1.1,1.8l2.4-1.3L39.6,41C40.3,40.3,40.9,39.4,41.2,38.4z"/><path fill="#6FAC43" d="M37.8,35.6c0.6,1.2,0.2,2.7-1,3.3c-0.8,0.4-1.7,0.4-2.4-0.1l-1,1.6c1.3,0.8,2.9,0.9,4.3,0.1
					c2.1-1.1,2.9-3.7,1.7-5.8c-0.4-0.7-0.9-1.2-1.5-1.6l-1,1.6C37.3,34.9,37.6,35.2,37.8,35.6z"/><path fill="#D95239" d="M65,47.6v-3.3L62.3,44c-0.2-1-0.6-1.9-1.2-2.8l1.7-2.1l-2.3-2.3l-2.1,1.7c-0.8-0.5-1.8-0.9-2.8-1.2
				l-0.3-2.7H52l-0.3,2.7c-1,0.2-1.9,0.6-2.8,1.2l-2.1-1.7l-2.3,2.3l1.7,2.1C45.6,42.1,45.2,43,45,44l-2.7,0.3v3.3l2.7,0.3
				c0.2,1,0.6,1.9,1.2,2.8l-1.7,2.1l2.3,2.3l2.1-1.7c0.8,0.5,1.8,0.9,2.8,1.2l0.3,2.7h3.3l0.3-2.7c1-0.2,1.9-0.6,2.8-1.2l2.1,1.7
				l2.3-2.3l-1.7-2.1c0.5-0.8,0.9-1.8,1.2-2.8L65,47.6z M53.6,50c-2.2,0-4-1.8-4-4s1.8-4,4-4c2.2,0,4,1.8,4,4S55.8,50,53.6,50z"/><path fill="#E8664A" d="M53.6,39.6c-3.5,0-6.4,2.9-6.4,6.4c0,3.5,2.9,6.4,6.4,6.4c3.5,0,6.4-2.9,6.4-6.4
				C60,42.5,57.2,39.6,53.6,39.6z M53.6,50c-2.2,0-4-1.8-4-4s1.8-4,4-4c2.2,0,4,1.8,4,4S55.8,50,53.6,50z"/><path fill="#E8664A" d="M47.3,46c0-3.5,2.9-6.4,6.4-6.4v-5H52l-0.3,2.7c-1,0.2-1.9,0.6-2.8,1.2l-2.1-1.7l-2.3,2.3l1.7,2.1
					C45.6,42.1,45.2,43,45,44l-2.7,0.3v3.3l2.7,0.3c0.2,1,0.6,1.9,1.2,2.8l-1.7,2.1l2.3,2.3l2.1-1.7c0.8,0.5,1.8,0.9,2.8,1.2
					l0.3,2.7h1.6v-5C50.1,52.4,47.3,49.5,47.3,46z"/><path fill="#6FAC43" d="M50.8 48.8c-.5-.5-.9-1.2-1.1-2C49.9 47.6 50.3 48.3 50.8 48.8zM49.7 45.2c.2-.8.5-1.5 1.1-2C50.3 43.7 49.9 44.4 49.7 45.2z"/><path fill="#639C42" d="M57.1,44.1c0.3,0.6,0.5,1.2,0.5,1.9C57.6,45.3,57.4,44.7,57.1,44.1z"/><path fill="#D95239" d="M47.3,46c0,3.5,2.9,6.4,6.4,6.4V50c-0.5,0-1.1-0.1-1.5-0.3c-0.5-0.2-0.9-0.5-1.3-0.9
					c-0.5-0.5-0.9-1.2-1.1-2c-0.1-0.3-0.1-0.5-0.1-0.8s0-0.5,0.1-0.8c0.2-0.8,0.5-1.5,1.1-2c0.4-0.4,0.8-0.7,1.3-0.9
					c0.5-0.2,1-0.3,1.5-0.3v-2.4C50.1,39.6,47.3,42.5,47.3,46z"/><g><path fill="#53528A" d="M38.5,60l2.2,1.5l2.1-2.8L40.7,57c0.5-1.2,0.7-2.5,0.5-3.8l2.5-1.1l-1.3-3.2l-2.5,0.9
					c-0.4-0.6-0.9-1.1-1.6-1.6c-0.5-0.4-1.1-0.7-1.7-1l0.3-2.7l-3.5-0.4L33,46.9c-1.3,0.2-2.6,0.7-3.7,1.6L27,46.9l-2.1,2.8l2.1,1.7
					c-0.5,1.2-0.7,2.5-0.5,3.8L24,56.2l1.3,3.2l2.5-0.9c0.4,0.6,0.9,1.1,1.6,1.6c0.5,0.4,1.1,0.7,1.7,1l-0.3,2.7l3.5,0.4l0.4-2.7
					C36.1,61.4,37.4,60.9,38.5,60z M32,56.7c-1.4-1-1.7-3-0.6-4.4c1-1.4,3-1.7,4.4-0.6c1.4,1,1.7,3,0.6,4.4
					C35.3,57.4,33.4,57.7,32,56.7z"/><path fill="#41427E" d="M37.2,49.8c-2.4-1.8-5.9-1.3-7.7,1.1c-1.8,2.4-1.3,5.9,1.1,7.7c2.4,1.8,5.9,1.3,7.7-1.1
					C40.1,55.1,39.6,51.6,37.2,49.8z M32,56.7c-1.4-1-1.7-3-0.6-4.4c1-1.4,3-1.7,4.4-0.6c1.4,1,1.7,3,0.6,4.4
					C35.3,57.4,33.4,57.7,32,56.7z"/><path fill="#41427E" d="M41.2,53.2l2.5-1.1l-1.3-3.2l-2.5,0.9c-0.4-0.6-0.9-1.1-1.6-1.6c-0.5-0.4-1.1-0.7-1.7-1l0.3-2.7
					l-1.8-0.2l-0.5,4.3c0.9,0.1,1.8,0.5,2.6,1.1c2.4,1.8,2.9,5.3,1.1,7.7c-1.2,1.6-3.2,2.4-5.1,2.2L32.6,64l1.7,0.2l0.4-2.7
					c1.3-0.2,2.6-0.7,3.7-1.6l2.2,1.5l2.1-2.8L40.7,57C41.2,55.8,41.4,54.5,41.2,53.2z"/><path fill="#53528A" d="M35.7,51.7c1.4,1,1.7,3,0.6,4.4c-0.7,0.9-1.8,1.3-2.9,1.2l-0.3,2.4c1.9,0.2,3.9-0.5,5.1-2.2
					c1.8-2.4,1.3-5.9-1.1-7.7c-0.8-0.6-1.7-0.9-2.6-1.1l-0.3,2.4C34.8,51.2,35.3,51.4,35.7,51.7z"/></g><rect width="2.6" height="17.4" x="7.3" y="2.6" fill="#E6E6E8"/><g><rect width="7.6" height="19.2" x="1" y="1.8" fill="#465C6A"/><rect width="7.6" height="9.9" x="1" y="11" fill="#3B4C56"/></g></svg>