<svg xmlns="http://www.w3.org/2000/svg" viewBox="0 0 32 32"><path d="M9,8a8,8,0,0,0-8,8,7.91,7.91,0,0,0,.82,3.5A7.93,7.93,0,0,1,4,16.78a5.4,5.4,0,0,1-.5-2.28,5.5,5.5,0,0,1,11,0,5.4,5.4,0,0,1-.5,2.28,7.93,7.93,0,0,1,2.18,2.72A7.91,7.91,0,0,0,17,16,8,8,0,0,0,9,8Z"/><path d="M12.86,18.42a5.51,5.51,0,0,1-7.72,0A6,6,0,0,0,3.2,21.49a8,8,0,0,0,11.6,0A6,6,0,0,0,12.86,18.42Z"/><circle cx="9" cy="14.5" r="3.5"/><path d="M25 19a6 6 0 0 0-4.93 9.42 5.75 5.75 0 0 1 1.05-1.15A4.37 4.37 0 0 1 20.5 25a4.5 4.5 0 0 1 9 0 4.37 4.37 0 0 1-.62 2.27 5.75 5.75 0 0 1 1.05 1.15A6 6 0 0 0 25 19zM27.51 28.73a4.48 4.48 0 0 1-5 0 4.09 4.09 0 0 0-1 1.15 5.94 5.94 0 0 0 6.94 0A4.09 4.09 0 0 0 27.51 28.73z"/><circle cx="25" cy="24.83" r="3"/><path d="M21.12 9.27A4.37 4.37 0 0 1 20.5 7a4.5 4.5 0 0 1 9 0 4.37 4.37 0 0 1-.62 2.27 5.75 5.75 0 0 1 1.05 1.15 6 6 0 1 0-9.86 0A5.75 5.75 0 0 1 21.12 9.27zM21.53 11.88a5.94 5.94 0 0 0 6.94 0 4.09 4.09 0 0 0-1-1.15 4.48 4.48 0 0 1-5 0A4.09 4.09 0 0 0 21.53 11.88z"/><circle cx="25" cy="6.83" r="3"/><path d="M19.11 10.77A6.38 6.38 0 0 1 18.28 9l-2.47 1.18A9.17 9.17 0 0 1 17 11.8zM17.54 18.83a8.94 8.94 0 0 1-.85 1.83l2 1.3a6.22 6.22 0 0 1 1.12-1.66z"/></svg>