<svg xmlns="http://www.w3.org/2000/svg" width="32" height="32" viewBox="0 0 32 32"><path style="line-height:normal;text-indent:0;text-align:start;text-decoration-line:none;text-decoration-style:solid;text-decoration-color:#000;text-transform:none;block-progression:tb;white-space:normal;isolation:auto;mix-blend-mode:normal;solid-color:#000;solid-opacity:1" fill="#373449" d="M 13 1 L 13 4 L 14 4 L 14 1 L 13 1 z M 7 5.0058594 L 7 5.5058594 L 7 8.0058594 L 8 8.0058594 L 8 13.009766 L 0 13.009766 L 0 13.509766 L 0 16.009766 L 1 16.009766 L 1 23.009766 L 9.015625 23.009766 L 18.291016 23.009766 C 18.10346 23.641027 18 24.308638 18 25 C 18 28.8601 21.139929 32 25 32 C 28.860071 32 32 28.8601 32 25 C 32 21.480447 29.386627 18.565996 26 18.078125 L 26 16.009766 L 27 16.009766 L 27 13.509766 L 27 13.009766 L 18.992188 13.009766 L 18.992188 8.0058594 L 20 8.0058594 L 20 5.0058594 L 7 5.0058594 z M 8 6.0058594 L 19 6.0058594 L 19 7.0058594 L 18.992188 7.0058594 L 18.992188 7 L 8 7 L 8 6.0058594 z M 3.0214844 7 L 3.0214844 8 L 5.0175781 8 L 5.0175781 9 L 3.0175781 9 L 3.0175781 12 L 6.0019531 12 L 6.0019531 11 L 4.0175781 11 L 4.0175781 10 L 6.0175781 10 L 6.0175781 7 L 3.0214844 7 z M 21.017578 7 L 21.017578 8 L 23.015625 8 L 23.015625 9 L 21.515625 9 L 21.515625 10 L 23.015625 10 L 23.015625 11 L 21.017578 11 L 21.017578 12 L 24.015625 12 L 24.015625 9.5 L 24.015625 7 L 21.017578 7 z M 9 8.0058594 L 17.992188 8.0058594 L 17.992188 15.005859 L 17.984375 15.005859 L 17.984375 15.009766 L 17.984375 22.009766 L 9.015625 22.009766 L 9.015625 15.009766 L 9 15.009766 L 9 8.0058594 z M 1 14.009766 L 8 14.009766 L 8 15.009766 L 1 15.009766 L 1 14.009766 z M 19 14.009766 L 26 14.009766 L 26 15.005859 L 19 15.005859 L 19 14.009766 z M 2 16.009766 L 8 16.009766 L 8 22.009766 L 2 22.009766 L 2 16.009766 z M 18.992188 16.009766 L 25 16.009766 L 25 18 C 22.446526 18 20.214937 19.37821 18.992188 21.425781 L 18.992188 16.009766 z M 25 19 C 28.319631 19 31 21.6804 31 25 C 31 28.3197 28.319631 31 25 31 C 21.680369 31 19 28.3197 19 25 C 19 21.6804 21.680369 19 25 19 z M 23.5 22.5 A 1 1 0 0 0 22.5 23.5 A 1 1 0 0 0 22.535156 23.757812 L 20.146484 26.146484 L 20.853516 26.853516 L 23.242188 24.464844 A 1 1 0 0 0 23.5 24.5 A 1 1 0 0 0 23.757812 24.464844 L 25.535156 26.242188 A 1 1 0 0 0 25.5 26.5 A 1 1 0 0 0 26.5 27.5 A 1 1 0 0 0 27.5 26.5 A 1 1 0 0 0 27.464844 26.242188 L 29.853516 23.853516 L 29.146484 23.146484 L 26.757812 25.535156 A 1 1 0 0 0 26.5 25.5 A 1 1 0 0 0 26.242188 25.535156 L 24.464844 23.757812 A 1 1 0 0 0 24.5 23.5 A 1 1 0 0 0 23.5 22.5 z " color="#000" enable-background="accumulate" font-family="sans-serif" font-weight="400" overflow="visible"/></svg>