<svg xmlns="http://www.w3.org/2000/svg" viewBox="0 0 64 64"><path fill="#dae4ea" d="M15,12.5a4.85,4.85,0,0,0-4.34,2.68L7,22.5H18.76l10-10Zm20.24,0,10,10H58l-3.66-7.32A4.85,4.85,0,0,0,50,12.5Z"/><path fill="#f6f9f9" d="M7,27.5v22h8v4h4v-24a3,3,0,0,1-2.12-.88,3,3,0,0,1-.7-1.12Zm40.82,0a3,3,0,0,1-.7,1.12A3,3,0,0,1,45,29.5v24h4v-4h8v-22Z"/><path fill="#dae4ea" d="M6.5,22.5a2.5,2.5,0,0,0,0,5h9.68a3,3,0,0,1,.7-3.12l1.88-1.88Zm38.74,0,1.88,1.88a3,3,0,0,1,.7,3.12H57.5a2.5,2.5,0,0,0,0-5Z"/><path fill="#c6d0da" d="M15.63,22.5l-1.87,1.88a3,3,0,0,0-.7,3.12h6.53l5-5Z"/><path fill="#f6f9f9" d="M32,17.74,21.12,28.62A3,3,0,0,1,19,29.5v24H45v-24a3,3,0,0,1-2.12-.88Z"/><path fill="#dae4ea" d="M32 10.5a3 3 0 0 0-2.15.88l-13 13a3 3 0 0 0 4.24 4.24L32 17.74 42.88 28.62a3 3 0 0 0 4.24-4.24l-13-13A3 3 0 0 0 32 10.5zM4 53.5H60v4H4z"/><path fill="#e7ecf1" d="M41.76 27.51v26H45v-24a3 3 0 0 1-2.12-.88zM13.06 27.5a2.95 2.95 0 0 0 2.81 2v24H19v-24a3 3 0 0 1-2.12-.88 3 3 0 0 1-.7-1.12zm40.81 0v22H57v-22zm-8 22v4H49v-4z"/><path fill="#c6d0da" d="M32 10.5a2.91 2.91 0 0 0-1.58.45 2.94 2.94 0 0 1 .57.43l13 13a3 3 0 0 1 0 4.24 3.35 3.35 0 0 1-.57.44 3 3 0 0 0 3.67-4.68l-13-13A3 3 0 0 0 32 10.5zM28.9 17.74L18 28.62a3.35 3.35 0 0 1-.57.44 3 3 0 0 0 3.67-.44L32 17.74zM53.87 22.5a2.5 2.5 0 1 1 0 5H57.5a2.5 2.5 0 0 0 0-5z"/><path fill="#c6d0da" d="M45.87 12.5a4.88 4.88 0 0 1 4.35 2.68l3.65 7.32H58l-3.66-7.32A4.85 4.85 0 0 0 50 12.5zM25.65 12.5l-10 10h3.11l10-10zM12 49.5h3v4H12zM57 53.5h3v4H57z"/><path fill="#b9f6d3" d="M7,36.63H19.25V50.37H7Z"/><path fill="#a2f4c1" d="M7,53.5H19.25V50.37H7Z"/><path fill="#f1cbb9" d="M10.92 50.37A3.92 3.92 0 0 0 7 46.44v3.93zM7 40.56a3.92 3.92 0 0 0 3.92-3.93H7z"/><path fill="#b9f6d3" d="M19.25,33.5h25.5V47.23H19.25Z"/><circle cx="32" cy="40.37" r="2.94" fill="#f1cbb9"/><path fill="#a2f4c1" d="M19.25 53.5h25.5V47.23H19.25zM42.79 33.5h2V47.23h-2z"/><path fill="#86f1a7" d="M42.79,53.5h2V47.23h-2Z"/><path fill="#f1cbb9" d="M40.83 33.5a3.91 3.91 0 0 0 3.92 3.92V33.5zM40.83 47.23a3.91 3.91 0 0 1 3.92-3.92v3.92zM23.17 47.23a3.91 3.91 0 0 0-3.92-3.92v3.92zM19.25 37.42a3.91 3.91 0 0 0 3.92-3.92H19.25z"/><path fill="#ecbeac" d="M44.75 43.31a3.94 3.94 0 0 0-2 .54v3.38h2zM42.79 33.5v3.38a3.84 3.84 0 0 0 2 .54V33.5z"/><path fill="#a2f4c1" d="M17.34,36.63h1.91V53.5H17.34Z"/><path fill="#86f1a7" d="M17.34,50.36V53.5h1.91V50.36Z"/><path fill="#f1cbb9" d="M19.25,40.61a2.93,2.93,0,0,0,0,5.78Z"/><path fill="#ecbeac" d="M19.25,40.61a3,3,0,0,0-1.91,1.23v3.32a2.9,2.9,0,0,0,1.91,1.23Z"/><path fill="#b9f6d3" d="M57,36.63H44.75V50.37H57Z"/><path fill="#a2f4c1" d="M57,53.5H44.75V50.37H57Z"/><path fill="#f1cbb9" d="M44.75,40.61a2.93,2.93,0,0,1,0,5.78Z"/><path fill="#a2f4c1" d="M55,36.63h2V50.37H55Z"/><path fill="#f1cbb9" d="M53.08 36.63A3.92 3.92 0 0 0 57 40.56V36.63zM53.08 50.37A3.92 3.92 0 0 1 57 46.44v3.93z"/><path fill="#ecbeac" d="M57 46.44A3.85 3.85 0 0 0 55 47v3.38h2zM55 36.63V40a3.85 3.85 0 0 0 2 .55V36.63z"/><path fill="#1b2c5a" d="M32,36.42a3.95,3.95,0,1,0,3.94,3.95A3.95,3.95,0,0,0,32,36.42Zm0,5.89a1.95,1.95,0,1,1,1.94-1.94A1.94,1.94,0,0,1,32,42.31Z"/><path fill="#1b2c5a" d="M61,25a3.49,3.49,0,0,0-2.26-3.26l-3.5-7A5.83,5.83,0,0,0,50,11.5H35.66l-.83-.83A4,4,0,0,0,32,9.5h0a4.06,4.06,0,0,0-2.83,1.17l-.83.83H15a5.83,5.83,0,0,0-5.24,3.24L6.38,21.51A3.49,3.49,0,0,0,6,28.45V52.5H4a1,1,0,0,0-1,1v4a1,1,0,0,0,1,1H60a1,1,0,0,0,1-1v-4a1,1,0,0,0-1-1H58.25V28.41A3.5,3.5,0,0,0,61,25ZM50,13.5a3.85,3.85,0,0,1,3.45,2.13l2.93,5.87-10.67.06L37.66,13.5ZM30.59,12.09A2,2,0,0,1,32,11.5h0a1.94,1.94,0,0,1,1.39.59l13,13a2,2,0,0,1-2.82,2.82L32.71,17a1,1,0,0,0-1.42,0L20.41,27.91a2,2,0,0,1-2.82-2.82ZM54.51,49.37a2.93,2.93,0,0,1,1.74-1.74v1.74Zm1.74,2V52.5H45.75V51.37h10.5Zm-3.82-2H46V47.13a3.92,3.92,0,0,0,0-7.26V37.63h6.43a4.93,4.93,0,0,0,3.82,3.82v4.1A4.93,4.93,0,0,0,52.43,49.37ZM46,44.73V42.27a1.94,1.94,0,0,1,0,2.46Zm8.51-7.1h1.74v1.74A3,3,0,0,1,54.51,37.63Zm-8.76-2v-5.2a4,4,0,0,0,2.08-1.1,4.08,4.08,0,0,0,.62-.83h7.8v7.13ZM22,34.5a2.92,2.92,0,0,1-1.73,1.74V34.5Zm-1.73-2V30.28a3.92,3.92,0,0,0,1.58-1L32,19.16,42.17,29.33a3.92,3.92,0,0,0,1.58,1V32.5Zm0,12A2.9,2.9,0,0,1,22,46.23H20.25Zm0,6.87h23.5V52.5H20.25Zm0-2V48.23h23.5v1.14ZM42,46.23a2.9,2.9,0,0,1,1.73-1.73v1.73Zm-2.09,0H24.07a5,5,0,0,0-3.82-3.82V38.32a5,5,0,0,0,3.82-3.82H39.93a5,5,0,0,0,3.82,3.82v4.09A5,5,0,0,0,39.93,46.23ZM42,34.5h1.73v1.74A2.92,2.92,0,0,1,42,34.5Zm-26.21,9a3.91,3.91,0,0,0,2.44,3.63v2.24H11.82A4.93,4.93,0,0,0,8,45.55v-4.1a4.93,4.93,0,0,0,3.82-3.82h6.43v2.24A3.91,3.91,0,0,0,15.81,43.5Zm2.44-1.23v2.46a1.94,1.94,0,0,1,0-2.46Zm0,9.1V52.5H8V51.37ZM8,49.37V47.63a2.93,2.93,0,0,1,1.74,1.74Zm0-10V37.63H9.74A3,3,0,0,1,8,39.37Zm0-3.74V28.5h7.55a4.08,4.08,0,0,0,.62.83,4,4,0,0,0,2.08,1.1v5.2Zm3.55-20A3.85,3.85,0,0,1,15,13.5H26.34l-8,8.06L8.62,21.5ZM5,25a1.5,1.5,0,0,1,1.5-1.5h9.84l-.17.17A4,4,0,0,0,15,26.5H6.5A1.5,1.5,0,0,1,5,25ZM59,54.5v2H5v-2Zm-1.5-28H49a4,4,0,0,0-1.17-2.83l-.17-.17H57.5a1.5,1.5,0,0,1,0,3Z"/><path fill="#1b2c5a" d="M32,23.4a3.78,3.78,0,1,0,3.78,3.78A3.79,3.79,0,0,0,32,23.4ZM32,29a1.78,1.78,0,1,1,1.78-1.78A1.78,1.78,0,0,1,32,29Z"/></svg>